<svg xmlns="http://www.w3.org/2000/svg" xmlns:xlink="http://www.w3.org/1999/xlink" width="1080" zoomAndPan="magnify" viewBox="0 0 810 582" height="776" preserveAspectRatio="xMidYMid meet" version="1.0"><defs><g/><clipPath id="89d13eeb26"><rect x="0" width="810" y="0" height="582"/></clipPath></defs><g transform="matrix(1, 0, 0, 1, 0, -0.000000000000014788)"><g clip-path="url(#89d13eeb26)"><path fill="#181e3c" d="M 27.359375 533.464844 L 68.726562 533.464844 L 68.726562 523.359375 L 27.359375 523.359375 C 18.941406 523.359375 12.140625 530.230469 12.140625 538.636719 L 12.140625 564.667969 C 12.140625 573.074219 18.941406 579.945312 27.359375 579.945312 L 68.726562 579.945312 L 68.726562 569.839844 L 27.359375 569.839844 C 24.527344 569.839844 22.179688 567.496094 22.179688 564.667969 L 22.179688 553.996094 L 58.605469 553.996094 L 58.605469 543.890625 L 22.179688 543.890625 L 22.179688 538.636719 C 22.179688 535.808594 24.527344 533.464844 27.359375 533.464844 Z M 27.359375 533.464844 " fill-opacity="1" fill-rule="nonzero"/><path fill="#181e3c" d="M 90.175781 580.1875 L 90.339844 580.027344 L 90.175781 580.027344 Z M 146.84375 580.027344 L 146.761719 580.027344 L 146.84375 580.1875 Z M 146.84375 523.441406 L 134.132812 523.441406 L 118.589844 543.570312 L 103.046875 523.441406 L 90.257812 523.441406 L 112.195312 551.8125 L 90.421875 580.027344 L 103.210938 580.027344 L 118.671875 560.058594 L 134.132812 580.027344 L 146.925781 580.027344 L 125.066406 551.8125 L 147.003906 523.441406 Z M 146.84375 523.441406 " fill-opacity="1" fill-rule="nonzero"/><path fill="#181e3c" d="M 214.84375 527.804688 C 212.089844 525.054688 208.285156 523.359375 204.078125 523.359375 L 168.375 523.359375 L 168.375 579.945312 L 178.496094 579.945312 L 178.496094 553.917969 L 205.613281 553.917969 L 205.613281 553.835938 C 205.777344 553.835938 205.9375 553.835938 206.101562 553.835938 C 207.636719 553.671875 209.09375 553.269531 210.472656 552.621094 C 215.734375 550.199219 219.375 544.863281 219.375 538.71875 C 219.375 534.515625 217.675781 530.714844 214.925781 527.964844 Z M 206.261719 543.488281 C 205.613281 543.8125 204.886719 543.972656 204.15625 543.972656 L 178.496094 543.972656 L 178.496094 533.542969 L 204.15625 533.542969 C 205.9375 533.542969 207.152344 534.351562 207.800781 535 C 208.367188 535.566406 209.339844 536.859375 209.339844 538.71875 C 209.339844 540.738281 208.125 542.597656 206.261719 543.40625 Z M 206.261719 543.488281 " fill-opacity="1" fill-rule="nonzero"/><path fill="#181e3c" d="M 265.519531 523.359375 C 249.894531 523.359375 237.1875 536.050781 237.1875 551.652344 C 237.1875 567.253906 249.894531 579.945312 265.519531 579.945312 C 281.144531 579.945312 293.851562 567.253906 293.851562 551.652344 C 293.851562 536.050781 281.144531 523.359375 265.519531 523.359375 Z M 265.519531 569.839844 C 255.480469 569.839844 247.304688 561.675781 247.304688 551.652344 C 247.304688 541.628906 255.480469 533.464844 265.519531 533.464844 C 275.558594 533.464844 283.734375 541.628906 283.734375 551.652344 C 283.734375 561.675781 275.558594 569.839844 265.519531 569.839844 Z M 265.519531 569.839844 " fill-opacity="1" fill-rule="nonzero"/><path fill="#181e3c" d="M 361.851562 523.359375 L 361.851562 559.414062 L 325.421875 531.363281 L 315.304688 523.601562 L 315.304688 580.027344 L 325.421875 580.027344 L 325.421875 544.214844 L 361.851562 572.265625 L 371.96875 580.027344 L 371.96875 523.441406 Z M 361.851562 523.359375 " fill-opacity="1" fill-rule="nonzero"/><path fill="#181e3c" d="M 410.746094 533.464844 L 452.113281 533.464844 L 452.113281 523.359375 L 410.746094 523.359375 C 402.328125 523.359375 395.527344 530.230469 395.527344 538.636719 L 395.527344 564.667969 C 395.527344 573.074219 402.328125 579.945312 410.746094 579.945312 L 452.113281 579.945312 L 452.113281 569.839844 L 410.746094 569.839844 C 407.914062 569.839844 405.566406 567.496094 405.566406 564.667969 L 405.566406 553.996094 L 441.992188 553.996094 L 441.992188 543.890625 L 405.566406 543.890625 L 405.566406 538.636719 C 405.566406 535.808594 407.914062 533.464844 410.746094 533.464844 Z M 410.746094 533.464844 " fill-opacity="1" fill-rule="nonzero"/><path fill="#181e3c" d="M 522.136719 523.359375 L 522.136719 559.414062 L 485.707031 531.363281 L 475.589844 523.601562 L 475.589844 580.027344 L 485.707031 580.027344 L 485.707031 544.214844 L 522.136719 572.265625 L 532.253906 580.027344 L 532.253906 523.441406 Z M 522.136719 523.359375 " fill-opacity="1" fill-rule="nonzero"/><path fill="#181e3c" d="M 555.730469 523.441406 L 555.730469 533.542969 L 578.964844 533.542969 L 578.964844 580.027344 L 589.082031 580.027344 L 589.082031 533.542969 L 612.316406 533.542969 L 612.316406 523.441406 Z M 555.730469 523.441406 " fill-opacity="1" fill-rule="nonzero"/><path fill="#181e3c" d="M 759.164062 569.839844 C 755.601562 569.355469 752.769531 566.527344 752.28125 562.96875 L 752.28125 523.441406 L 742.164062 523.441406 L 742.164062 562 C 742.164062 564.828125 742.8125 567.496094 744.023438 569.921875 C 745.726562 573.480469 748.640625 576.390625 752.203125 578.167969 C 754.628906 579.378906 757.300781 580.027344 760.132812 580.027344 L 788.871094 580.027344 L 788.871094 569.921875 Z M 759.164062 569.839844 " fill-opacity="1" fill-rule="nonzero"/><path fill="#58c7cc" d="M 645.953125 580.003906 L 645.953125 523.417969 L 635.832031 523.417969 L 635.832031 580.003906 Z M 645.953125 580.003906 " fill-opacity="1" fill-rule="nonzero"/><path fill="#58c7cc" d="M 718.808594 569.898438 L 695.089844 523.417969 L 671.371094 569.898438 L 666.191406 580.003906 L 677.523438 580.003906 L 682.703125 569.898438 L 695.089844 545.648438 L 707.476562 569.898438 L 712.65625 580.003906 L 723.988281 580.003906 Z M 718.808594 569.898438 " fill-opacity="1" fill-rule="nonzero"/><g fill="#171e3b" fill-opacity="1"><g transform="translate(788.570367, 539.24431)"><g><path d="M 3.59375 -14.734375 C 3.59375 -14.378906 3.488281 -14.078125 3.28125 -13.828125 C 3.082031 -13.578125 2.84375 -13.453125 2.5625 -13.453125 C 2.28125 -13.453125 2.035156 -13.578125 1.828125 -13.828125 C 1.628906 -14.078125 1.53125 -14.378906 1.53125 -14.734375 C 1.53125 -15.085938 1.628906 -15.390625 1.828125 -15.640625 C 2.035156 -15.890625 2.28125 -16.015625 2.5625 -16.015625 C 2.84375 -16.015625 3.082031 -15.890625 3.28125 -15.640625 C 3.488281 -15.390625 3.59375 -15.085938 3.59375 -14.734375 Z M 3.5 -0.828125 L 5.015625 -0.53125 L 5.015625 0 L 0.40625 0 L 0.40625 -0.53125 L 1.921875 -0.828125 L 1.921875 -10.28125 L 0.65625 -10.5625 L 0.65625 -11.109375 L 3.5 -11.109375 Z M 3.5 -0.828125 "/></g></g></g><g fill="#171e3b" fill-opacity="1"><g transform="translate(796.615964, 539.24431)"><g><path d="M 3.15625 0.234375 C 2.550781 0.234375 2.097656 0.0078125 1.796875 -0.4375 C 1.503906 -0.882812 1.359375 -1.515625 1.359375 -2.328125 L 1.359375 -10.109375 L 0.1875 -10.109375 L 0.1875 -10.640625 L 1.375 -11.109375 L 2.328125 -13.625 L 2.921875 -13.625 L 2.921875 -11.109375 L 4.96875 -11.109375 L 4.96875 -10.109375 L 2.921875 -10.109375 L 2.921875 -2.546875 C 2.921875 -2.023438 3.015625 -1.632812 3.203125 -1.375 C 3.390625 -1.113281 3.632812 -0.984375 3.9375 -0.984375 C 4.300781 -0.984375 4.75 -1.050781 5.28125 -1.1875 L 5.28125 -0.40625 C 5.050781 -0.21875 4.726562 -0.0664062 4.3125 0.046875 C 3.894531 0.171875 3.507812 0.234375 3.15625 0.234375 Z M 3.15625 0.234375 "/></g></g></g><path fill="#1d1e40" d="M 534.316406 9.25 L 458.34375 9.25 C 457.089844 9.25 455.839844 9.335938 454.597656 9.507812 C 453.355469 9.679688 452.128906 9.933594 450.921875 10.273438 C 449.714844 10.613281 448.535156 11.03125 447.386719 11.535156 C 446.234375 12.035156 445.125 12.613281 444.054688 13.265625 C 442.984375 13.917969 441.960938 14.644531 440.992188 15.4375 C 440.019531 16.230469 439.105469 17.085938 438.253906 18.003906 C 437.398438 18.921875 436.609375 19.894531 435.890625 20.921875 C 435.167969 21.949219 434.523438 23.019531 433.949219 24.136719 L 191.945312 495.324219 C 191.714844 495.769531 191.515625 496.230469 191.34375 496.699219 C 191.175781 497.171875 191.035156 497.652344 190.925781 498.144531 C 190.816406 498.632812 190.738281 499.128906 190.695312 499.628906 C 190.648438 500.125 190.636719 500.628906 190.652344 501.128906 C 190.671875 501.628906 190.722656 502.128906 190.804688 502.625 C 190.886719 503.117188 191 503.605469 191.144531 504.085938 C 191.289062 504.566406 191.464844 505.035156 191.667969 505.492188 C 191.871094 505.953125 192.105469 506.394531 192.367188 506.824219 C 192.628906 507.253906 192.914062 507.664062 193.226562 508.054688 C 193.542969 508.445312 193.878906 508.816406 194.238281 509.164062 C 194.601562 509.511719 194.980469 509.835938 195.382812 510.136719 C 195.785156 510.4375 196.207031 510.707031 196.644531 510.953125 C 197.082031 511.199219 197.53125 511.417969 197.996094 511.605469 C 198.460938 511.792969 198.9375 511.953125 199.421875 512.078125 C 199.90625 512.207031 200.398438 512.304688 200.894531 512.367188 C 201.394531 512.433594 201.894531 512.464844 202.394531 512.464844 L 317.351562 512.464844 C 318.648438 512.464844 319.941406 512.375 321.226562 512.195312 C 322.511719 512.011719 323.777344 511.742188 325.023438 511.386719 C 326.269531 511.027344 327.488281 510.585938 328.671875 510.058594 C 329.855469 509.527344 331 508.921875 332.101562 508.234375 C 333.199219 507.546875 334.246094 506.785156 335.242188 505.949219 C 336.234375 505.117188 337.164062 504.214844 338.035156 503.253906 C 338.902344 502.289062 339.699219 501.265625 340.421875 500.191406 C 341.148438 499.117188 341.796875 497.996094 342.363281 496.828125 L 497.511719 178.90625 L 498.75 178.90625 L 595.195312 377.3125 C 633.53125 456.253906 696.773438 506.742188 783.738281 511.3125 C 787.929688 511.527344 796.632812 513.460938 800.984375 506.257812 C 804.855469 499.863281 800.527344 490.351562 800.527344 490.351562 L 563.039062 26.824219 C 562.363281 25.507812 561.605469 24.242188 560.757812 23.03125 C 559.914062 21.820312 558.988281 20.671875 557.980469 19.585938 C 556.976562 18.5 555.902344 17.488281 554.761719 16.554688 C 553.617188 15.617188 552.414062 14.761719 551.152344 13.988281 C 549.890625 13.21875 548.585938 12.535156 547.230469 11.945312 C 545.875 11.355469 544.484375 10.859375 543.0625 10.457031 C 541.640625 10.054688 540.195312 9.753906 538.730469 9.554688 C 537.269531 9.351562 535.796875 9.25 534.316406 9.25 Z M 534.316406 9.25 " fill-opacity="1" fill-rule="nonzero"/><path fill="#48bdcd" d="M 7.484375 489.171875 L 248.066406 18.386719 C 248.53125 17.480469 249.054688 16.613281 249.636719 15.777344 C 250.222656 14.945312 250.859375 14.15625 251.550781 13.410156 C 252.242188 12.664062 252.984375 11.96875 253.769531 11.324219 C 254.558594 10.679688 255.386719 10.09375 256.253906 9.5625 C 257.121094 9.03125 258.023438 8.5625 258.953125 8.15625 C 259.886719 7.746094 260.84375 7.40625 261.820312 7.128906 C 262.800781 6.855469 263.792969 6.644531 264.800781 6.507812 C 265.808594 6.367188 266.820312 6.296875 267.839844 6.296875 L 394.296875 6.296875 C 394.726562 6.296875 395.207031 6.296875 395.421875 6.777344 C 395.539062 7.144531 395.484375 7.488281 395.261719 7.800781 C 395.261719 7.800781 395.261719 8.042969 395.074219 8.175781 L 394.804688 8.742188 L 394.457031 9.464844 L 394 10.351562 L 393.488281 11.402344 C 393.273438 11.804688 393.085938 12.207031 392.871094 12.636719 L 392.199219 14.007812 L 391.449219 15.539062 L 390.613281 17.203125 C 390.320312 17.824219 390.023438 18.441406 389.699219 19.03125 L 388.734375 21.019531 L 387.6875 23.144531 C 387.308594 23.894531 386.933594 24.648438 386.585938 25.398438 L 385.375 27.792969 C 384.972656 28.652344 384.542969 29.484375 384.140625 30.316406 C 383.738281 31.148438 383.253906 32.117188 382.824219 33.003906 C 382.394531 33.890625 381.910156 34.859375 381.425781 35.691406 C 380.941406 36.523438 380.484375 37.625 380.003906 38.621094 C 379.519531 39.613281 378.980469 40.636719 378.5 41.65625 C 378.015625 42.675781 377.449219 43.75 376.941406 44.828125 L 375.300781 48.105469 L 373.769531 51.625 C 373.179688 52.78125 372.585938 53.960938 372.023438 55.117188 C 371.460938 56.273438 370.839844 57.535156 370.222656 58.746094 C 369.605469 59.953125 369.015625 61.242188 368.398438 62.480469 L 366.488281 66.320312 L 364.554688 70.246094 C 363.882812 71.617188 363.210938 72.933594 362.566406 74.300781 C 361.921875 75.671875 361.195312 76.988281 360.523438 78.414062 L 358.429688 82.660156 C 357.703125 84.082031 357.003906 85.535156 356.308594 86.957031 L 354.132812 91.363281 L 351.902344 95.851562 L 349.589844 100.339844 C 348.839844 101.898438 348.058594 103.429688 347.308594 104.988281 L 344.96875 109.714844 C 344.164062 111.300781 343.386719 112.914062 342.605469 114.5 L 340.1875 119.390625 C 339.382812 121.027344 338.574219 122.667969 337.742188 124.308594 C 336.910156 125.945312 336.105469 127.640625 335.273438 129.304688 L 332.773438 134.382812 C 331.941406 136.074219 331.109375 137.796875 330.246094 139.515625 L 327.5625 144.675781 L 324.875 149.914062 C 323.988281 151.6875 323.128906 153.433594 322.1875 155.289062 C 321.246094 157.140625 320.414062 158.835938 319.5 160.660156 L 316.816406 166.035156 C 315.902344 167.835938 315.015625 169.664062 314.128906 171.410156 C 313.242188 173.15625 312.328125 175.035156 311.441406 176.785156 C 310.554688 178.53125 309.613281 180.4375 308.753906 182.292969 L 306.070312 187.664062 C 305.15625 189.519531 304.242188 191.402344 303.382812 193.226562 C 302.523438 195.054688 301.527344 196.960938 300.695312 198.84375 C 299.863281 200.722656 298.84375 202.578125 298.007812 204.460938 L 295.324219 210.074219 C 294.382812 211.984375 293.46875 213.863281 292.636719 215.746094 C 291.804688 217.625 290.753906 219.53125 289.949219 221.414062 L 287.128906 227.109375 L 284.441406 232.804688 L 281.621094 238.53125 L 278.933594 244.253906 L 276.113281 249.976562 L 273.292969 255.671875 L 269.882812 261.558594 L 267.058594 267.28125 L 264.238281 272.976562 C 263.324219 274.882812 262.386719 276.792969 261.550781 278.671875 L 258.730469 284.371094 C 257.816406 286.25 256.878906 288.132812 256.046875 290.011719 C 255.210938 291.894531 254.191406 293.800781 253.359375 295.679688 C 252.527344 297.5625 251.503906 299.417969 250.671875 301.296875 L 247.984375 306.886719 L 244.816406 312.609375 L 242.128906 317.984375 C 241.214844 319.808594 240.300781 321.636719 239.441406 323.355469 C 238.582031 325.078125 237.617188 326.984375 236.753906 328.730469 C 235.894531 330.476562 234.957031 332.359375 234.070312 334.105469 L 231.382812 339.480469 C 230.496094 341.253906 229.609375 343.054688 228.695312 344.851562 L 226.007812 350.226562 L 223.324219 355.601562 L 220.636719 360.785156 C 219.804688 362.507812 218.945312 364.226562 218.109375 365.917969 L 215.585938 370.996094 C 214.753906 372.691406 213.945312 374.355469 213.113281 376.023438 C 212.28125 377.6875 211.476562 379.328125 210.667969 380.992188 L 208.25 385.882812 L 205.859375 390.691406 L 203.523438 395.449219 L 201.210938 400.125 L 198.957031 404.691406 C 198.203125 406.195312 197.453125 407.703125 196.726562 409.207031 L 194.523438 413.640625 C 193.824219 415.089844 193.097656 416.542969 192.375 417.992188 L 190.277344 422.238281 C 189.605469 423.636719 188.910156 424.925781 188.238281 426.402344 L 186.222656 430.460938 L 184.261719 434.4375 L 182.351562 438.304688 L 180.5 442.066406 C 179.882812 443.277344 179.289062 444.511719 178.699219 445.722656 L 176.925781 449.269531 L 175.234375 452.707031 C 174.695312 453.808594 174.132812 454.910156 173.59375 456.039062 C 173.058594 457.167969 172.546875 458.164062 172.011719 459.238281 L 170.480469 462.328125 L 169.027344 465.28125 L 167.628906 468.105469 L 166.289062 470.792969 L 165.023438 473.476562 L 163.816406 475.921875 L 162.6875 478.207031 C 162.3125 478.933594 161.960938 479.65625 161.613281 480.382812 C 161.265625 481.109375 160.941406 481.726562 160.617188 482.398438 C 160.296875 483.070312 160 483.660156 159.679688 484.28125 C 159.355469 484.898438 159.113281 485.433594 158.820312 486 C 158.523438 486.5625 158.308594 487.046875 158.039062 487.585938 L 157.339844 489.007812 L 156.722656 490.273438 C 156.535156 490.648438 156.347656 490.996094 156.1875 491.375 L 155.703125 492.3125 L 155.328125 493.09375 L 155.03125 493.710938 L 154.816406 494.140625 L 154.628906 494.488281 C 154.078125 495.613281 153.449219 496.695312 152.746094 497.734375 C 152.046875 498.769531 151.273438 499.753906 150.433594 500.683594 C 149.59375 501.613281 148.695312 502.480469 147.734375 503.285156 C 146.773438 504.085938 145.757812 504.820312 144.695312 505.480469 C 143.632812 506.144531 142.527344 506.726562 141.382812 507.234375 C 140.238281 507.742188 139.0625 508.167969 137.859375 508.511719 C 136.652344 508.855469 135.429688 509.109375 134.1875 509.28125 C 132.949219 509.453125 131.703125 509.539062 130.449219 509.539062 L 20.003906 509.539062 C 19.410156 509.535156 18.816406 509.496094 18.222656 509.417969 C 17.632812 509.34375 17.046875 509.226562 16.472656 509.078125 C 15.894531 508.925781 15.328125 508.738281 14.777344 508.515625 C 14.222656 508.292969 13.6875 508.035156 13.167969 507.742188 C 12.648438 507.449219 12.148438 507.128906 11.667969 506.773438 C 11.1875 506.417969 10.734375 506.03125 10.304688 505.621094 C 9.875 505.207031 9.472656 504.765625 9.097656 504.304688 C 8.722656 503.839844 8.378906 503.351562 8.070312 502.84375 C 7.757812 502.335938 7.476562 501.808594 7.230469 501.265625 C 6.988281 500.722656 6.777344 500.167969 6.601562 499.597656 C 6.425781 499.027344 6.289062 498.445312 6.1875 497.859375 C 6.089844 497.269531 6.027344 496.679688 6 496.082031 C 5.976562 495.488281 5.988281 494.890625 6.039062 494.296875 C 6.089844 493.703125 6.175781 493.113281 6.300781 492.53125 C 6.425781 491.949219 6.589844 491.375 6.785156 490.8125 C 6.984375 490.25 7.21875 489.703125 7.484375 489.171875 Z M 7.484375 489.171875 " fill-opacity="1" fill-rule="nonzero"/></g></g></svg>