<svg xmlns="http://www.w3.org/2000/svg" xmlns:xlink="http://www.w3.org/1999/xlink" width="1080" zoomAndPan="magnify" viewBox="0 0 810 161.999997" height="216" preserveAspectRatio="xMidYMid meet" version="1.0"><defs><g/><clipPath id="f5fbeb7cbc"><rect x="0" width="810" y="0" height="162"/></clipPath></defs><g transform="matrix(1, 0, 0, 1, 0, 0)"><g clip-path="url(#f5fbeb7cbc)"><path fill="#1d1e40" d="M 166.898438 2.878906 L 143.167969 2.878906 C 142.382812 2.878906 141.609375 2.984375 140.851562 3.199219 C 140.09375 3.410156 139.378906 3.71875 138.707031 4.128906 C 138.035156 4.539062 137.429688 5.027344 136.894531 5.605469 C 136.359375 6.179688 135.910156 6.8125 135.550781 7.511719 L 59.960938 154.15625 C 59.816406 154.4375 59.710938 154.730469 59.644531 155.035156 C 59.574219 155.339844 59.546875 155.652344 59.558594 155.964844 C 59.570312 156.277344 59.621094 156.585938 59.710938 156.882812 C 59.800781 157.183594 59.929688 157.46875 60.09375 157.738281 C 60.257812 158.003906 60.453125 158.246094 60.679688 158.464844 C 60.902344 158.683594 61.15625 158.867188 61.429688 159.023438 C 61.703125 159.175781 61.992188 159.292969 62.296875 159.371094 C 62.601562 159.453125 62.910156 159.492188 63.226562 159.492188 L 99.132812 159.492188 C 99.945312 159.492188 100.746094 159.378906 101.527344 159.15625 C 102.308594 158.933594 103.046875 158.605469 103.738281 158.175781 C 104.429688 157.746094 105.046875 157.226562 105.589844 156.625 C 106.136719 156.023438 106.585938 155.355469 106.945312 154.625 L 155.402344 55.679688 L 155.789062 55.679688 L 185.914062 117.429688 C 197.886719 142 217.640625 157.710938 244.804688 159.132812 C 246.113281 159.199219 248.832031 159.800781 250.191406 157.5625 C 251.398438 155.570312 250.046875 152.609375 250.046875 152.609375 L 175.871094 8.347656 C 175.449219 7.523438 174.921875 6.773438 174.289062 6.09375 C 173.660156 5.417969 172.949219 4.835938 172.15625 4.355469 C 171.367188 3.871094 170.523438 3.503906 169.632812 3.253906 C 168.738281 3.003906 167.828125 2.878906 166.898438 2.878906 Z M 166.898438 2.878906 " fill-opacity="1" fill-rule="nonzero"/><path fill="#48bdcd" d="M 2.347656 152.242188 L 77.488281 5.722656 C 77.78125 5.15625 78.144531 4.640625 78.578125 4.171875 C 79.011719 3.707031 79.503906 3.308594 80.046875 2.976562 C 80.59375 2.644531 81.171875 2.390625 81.785156 2.21875 C 82.402344 2.046875 83.027344 1.960938 83.667969 1.960938 L 123.164062 1.960938 C 123.296875 1.960938 123.449219 1.960938 123.515625 2.109375 C 123.554688 2.222656 123.535156 2.328125 123.464844 2.425781 C 123.464844 2.425781 123.464844 2.503906 123.40625 2.542969 L 123.324219 2.71875 L 123.214844 2.945312 L 123.070312 3.222656 L 122.914062 3.546875 C 122.84375 3.671875 122.785156 3.800781 122.71875 3.933594 L 122.507812 4.359375 L 122.273438 4.835938 L 122.015625 5.355469 C 121.921875 5.546875 121.828125 5.738281 121.730469 5.921875 L 121.425781 6.542969 L 121.101562 7.203125 C 120.980469 7.4375 120.863281 7.671875 120.753906 7.90625 L 120.378906 8.648438 C 120.253906 8.917969 120.117188 9.175781 119.992188 9.433594 C 119.867188 9.695312 119.714844 9.996094 119.582031 10.273438 C 119.445312 10.546875 119.296875 10.847656 119.144531 11.109375 C 118.992188 11.367188 118.851562 11.710938 118.699219 12.019531 C 118.546875 12.328125 118.382812 12.648438 118.230469 12.964844 C 118.078125 13.28125 117.902344 13.617188 117.742188 13.949219 L 117.230469 14.972656 L 116.753906 16.066406 C 116.570312 16.425781 116.382812 16.792969 116.207031 17.152344 C 116.03125 17.511719 115.839844 17.90625 115.644531 18.28125 C 115.453125 18.660156 115.269531 19.0625 115.074219 19.445312 L 114.480469 20.640625 L 113.875 21.863281 C 113.664062 22.289062 113.457031 22.699219 113.253906 23.125 C 113.050781 23.550781 112.824219 23.960938 112.617188 24.40625 L 111.960938 25.726562 C 111.734375 26.167969 111.515625 26.621094 111.296875 27.0625 L 110.617188 28.433594 L 109.921875 29.832031 L 109.199219 31.226562 C 108.964844 31.714844 108.722656 32.191406 108.488281 32.675781 L 107.757812 34.148438 C 107.503906 34.640625 107.261719 35.140625 107.019531 35.636719 L 106.265625 37.15625 C 106.011719 37.667969 105.761719 38.175781 105.5 38.6875 C 105.238281 39.199219 104.988281 39.722656 104.726562 40.242188 L 103.949219 41.824219 C 103.6875 42.351562 103.425781 42.886719 103.160156 43.421875 L 102.320312 45.027344 L 101.480469 46.65625 C 101.203125 47.207031 100.933594 47.753906 100.640625 48.328125 C 100.347656 48.90625 100.089844 49.433594 99.800781 50.003906 L 98.964844 51.675781 C 98.679688 52.234375 98.402344 52.804688 98.125 53.347656 C 97.847656 53.890625 97.5625 54.476562 97.285156 55.019531 C 97.007812 55.5625 96.714844 56.15625 96.445312 56.734375 L 95.605469 58.40625 C 95.320312 58.984375 95.035156 59.570312 94.769531 60.136719 C 94.5 60.707031 94.1875 61.300781 93.929688 61.886719 C 93.667969 62.46875 93.351562 63.046875 93.089844 63.632812 L 92.25 65.378906 C 91.957031 65.972656 91.671875 66.558594 91.410156 67.144531 C 91.152344 67.730469 90.824219 68.324219 90.570312 68.910156 L 89.691406 70.683594 L 88.851562 72.457031 L 87.972656 74.238281 L 87.132812 76.019531 L 86.25 77.800781 L 85.371094 79.570312 L 84.304688 81.402344 L 83.421875 83.183594 L 82.542969 84.957031 C 82.257812 85.550781 81.960938 86.144531 81.703125 86.730469 L 80.820312 88.503906 C 80.535156 89.089844 80.242188 89.671875 79.980469 90.257812 C 79.722656 90.84375 79.402344 91.4375 79.144531 92.023438 C 78.882812 92.609375 78.5625 93.1875 78.304688 93.769531 L 77.464844 95.511719 L 76.476562 97.292969 L 75.636719 98.964844 C 75.351562 99.535156 75.066406 100.101562 74.796875 100.636719 C 74.527344 101.171875 74.226562 101.765625 73.957031 102.308594 C 73.6875 102.851562 73.394531 103.4375 73.117188 103.980469 L 72.277344 105.65625 C 72.003906 106.207031 71.726562 106.765625 71.441406 107.328125 L 69.761719 110.671875 L 68.921875 112.285156 C 68.664062 112.820312 68.394531 113.355469 68.132812 113.882812 L 67.34375 115.464844 C 67.085938 115.992188 66.832031 116.507812 66.574219 117.027344 C 66.3125 117.546875 66.0625 118.054688 65.808594 118.574219 L 65.054688 120.097656 L 64.308594 121.59375 L 63.578125 123.074219 L 62.855469 124.527344 L 62.152344 125.949219 C 61.914062 126.417969 61.679688 126.886719 61.453125 127.355469 L 60.765625 128.734375 C 60.546875 129.1875 60.320312 129.636719 60.09375 130.089844 L 59.441406 131.410156 C 59.230469 131.847656 59.011719 132.246094 58.804688 132.707031 L 58.171875 133.96875 L 57.5625 135.207031 L 56.964844 136.410156 L 56.386719 137.582031 C 56.191406 137.960938 56.007812 138.34375 55.824219 138.71875 L 55.269531 139.824219 L 54.742188 140.894531 C 54.574219 141.238281 54.398438 141.578125 54.230469 141.929688 C 54.0625 142.28125 53.902344 142.59375 53.734375 142.925781 L 53.257812 143.886719 L 52.804688 144.808594 L 52.367188 145.6875 L 51.945312 146.523438 L 51.550781 147.359375 L 51.175781 148.121094 L 50.824219 148.832031 C 50.707031 149.054688 50.597656 149.28125 50.488281 149.507812 C 50.378906 149.734375 50.277344 149.925781 50.175781 150.136719 C 50.074219 150.34375 49.984375 150.527344 49.882812 150.71875 C 49.78125 150.914062 49.707031 151.078125 49.613281 151.253906 C 49.523438 151.429688 49.453125 151.582031 49.371094 151.75 L 49.152344 152.191406 L 48.960938 152.585938 C 48.902344 152.703125 48.84375 152.8125 48.792969 152.929688 L 48.640625 153.21875 L 48.523438 153.464844 L 48.429688 153.65625 L 48.363281 153.789062 L 48.304688 153.898438 C 47.960938 154.601562 47.523438 155.246094 46.996094 155.824219 C 46.46875 156.40625 45.871094 156.90625 45.203125 157.320312 C 44.535156 157.734375 43.824219 158.046875 43.066406 158.261719 C 42.3125 158.476562 41.539062 158.582031 40.753906 158.582031 L 6.257812 158.582031 C 5.882812 158.582031 5.515625 158.53125 5.152344 158.4375 C 4.789062 158.34375 4.445312 158.203125 4.121094 158.023438 C 3.792969 157.839844 3.496094 157.621094 3.226562 157.363281 C 2.957031 157.101562 2.722656 156.816406 2.527344 156.496094 C 2.332031 156.179688 2.179688 155.84375 2.070312 155.488281 C 1.960938 155.128906 1.898438 154.765625 1.882812 154.394531 C 1.867188 154.019531 1.898438 153.652344 1.976562 153.289062 C 2.054688 152.925781 2.179688 152.574219 2.347656 152.242188 Z M 2.347656 152.242188 " fill-opacity="1" fill-rule="nonzero"/><path fill="#181e3c" d="M 271.394531 69.707031 L 299.871094 69.707031 L 299.871094 62.644531 L 271.394531 62.644531 C 265.597656 62.644531 260.914062 67.445312 260.914062 73.324219 L 260.914062 91.519531 C 260.914062 97.398438 265.597656 102.203125 271.394531 102.203125 L 299.871094 102.203125 L 299.871094 95.136719 L 271.394531 95.136719 C 269.441406 95.136719 267.824219 93.5 267.824219 91.519531 L 267.824219 84.0625 L 292.90625 84.0625 L 292.90625 76.996094 L 267.824219 76.996094 L 267.824219 73.324219 C 267.824219 71.34375 269.441406 69.707031 271.394531 69.707031 Z M 271.394531 69.707031 " fill-opacity="1" fill-rule="nonzero"/><path fill="#181e3c" d="M 314.640625 102.371094 L 314.753906 102.257812 L 314.640625 102.257812 Z M 353.65625 102.257812 L 353.597656 102.257812 L 353.65625 102.371094 Z M 353.65625 62.699219 L 344.90625 62.699219 L 334.203125 76.769531 L 323.503906 62.699219 L 314.699219 62.699219 L 329.800781 82.535156 L 314.808594 102.257812 L 323.613281 102.257812 L 334.261719 88.300781 L 344.90625 102.257812 L 353.710938 102.257812 L 338.664062 82.535156 L 353.765625 62.699219 Z M 353.65625 62.699219 " fill-opacity="1" fill-rule="nonzero"/><path fill="#181e3c" d="M 400.472656 65.75 C 398.578125 63.828125 395.957031 62.644531 393.058594 62.644531 L 368.480469 62.644531 L 368.480469 102.203125 L 375.445312 102.203125 L 375.445312 84.003906 L 394.117188 84.003906 L 394.117188 83.949219 C 394.230469 83.949219 394.339844 83.949219 394.453125 83.949219 C 395.511719 83.835938 396.515625 83.550781 397.460938 83.101562 C 401.085938 81.40625 403.59375 77.675781 403.59375 73.378906 C 403.59375 70.441406 402.421875 67.785156 400.527344 65.863281 Z M 394.5625 76.714844 C 394.117188 76.941406 393.617188 77.054688 393.113281 77.054688 L 375.445312 77.054688 L 375.445312 69.761719 L 393.113281 69.761719 C 394.339844 69.761719 395.175781 70.328125 395.621094 70.78125 C 396.011719 71.175781 396.679688 72.082031 396.679688 73.378906 C 396.679688 74.792969 395.84375 76.09375 394.5625 76.65625 Z M 394.5625 76.714844 " fill-opacity="1" fill-rule="nonzero"/><path fill="#181e3c" d="M 435.359375 62.644531 C 424.605469 62.644531 415.855469 71.515625 415.855469 82.421875 C 415.855469 93.328125 424.605469 102.203125 435.359375 102.203125 C 446.117188 102.203125 454.867188 93.328125 454.867188 82.421875 C 454.867188 71.515625 446.117188 62.644531 435.359375 62.644531 Z M 435.359375 95.136719 C 428.449219 95.136719 422.820312 89.429688 422.820312 82.421875 C 422.820312 75.414062 428.449219 69.707031 435.359375 69.707031 C 442.269531 69.707031 447.902344 75.414062 447.902344 82.421875 C 447.902344 89.429688 442.269531 95.136719 435.359375 95.136719 Z M 435.359375 95.136719 " fill-opacity="1" fill-rule="nonzero"/><path fill="#181e3c" d="M 501.683594 62.644531 L 501.683594 87.847656 L 476.601562 68.238281 L 469.636719 62.8125 L 469.636719 102.257812 L 476.601562 102.257812 L 476.601562 77.222656 L 501.683594 96.832031 L 508.648438 102.257812 L 508.648438 62.699219 Z M 501.683594 62.644531 " fill-opacity="1" fill-rule="nonzero"/><path fill="#181e3c" d="M 535.347656 69.707031 L 563.824219 69.707031 L 563.824219 62.644531 L 535.347656 62.644531 C 529.550781 62.644531 524.867188 67.445312 524.867188 73.324219 L 524.867188 91.519531 C 524.867188 97.398438 529.550781 102.203125 535.347656 102.203125 L 563.824219 102.203125 L 563.824219 95.136719 L 535.347656 95.136719 C 533.394531 95.136719 531.777344 93.5 531.777344 91.519531 L 531.777344 84.0625 L 556.859375 84.0625 L 556.859375 76.996094 L 531.777344 76.996094 L 531.777344 73.324219 C 531.777344 71.34375 533.394531 69.707031 535.347656 69.707031 Z M 535.347656 69.707031 " fill-opacity="1" fill-rule="nonzero"/><path fill="#181e3c" d="M 612.035156 62.644531 L 612.035156 87.847656 L 586.957031 68.238281 L 579.988281 62.8125 L 579.988281 102.257812 L 586.957031 102.257812 L 586.957031 77.222656 L 612.035156 96.832031 L 619.003906 102.257812 L 619.003906 62.699219 Z M 612.035156 62.644531 " fill-opacity="1" fill-rule="nonzero"/><path fill="#181e3c" d="M 635.164062 62.699219 L 635.164062 69.761719 L 651.160156 69.761719 L 651.160156 102.257812 L 658.125 102.257812 L 658.125 69.761719 L 674.121094 69.761719 L 674.121094 62.699219 Z M 635.164062 62.699219 " fill-opacity="1" fill-rule="nonzero"/><path fill="#181e3c" d="M 775.222656 95.136719 C 772.769531 94.796875 770.820312 92.820312 770.484375 90.332031 L 770.484375 62.699219 L 763.519531 62.699219 L 763.519531 89.65625 C 763.519531 91.632812 763.964844 93.5 764.800781 95.195312 C 765.972656 97.679688 767.976562 99.714844 770.429688 100.957031 C 772.101562 101.804688 773.941406 102.257812 775.890625 102.257812 L 795.675781 102.257812 L 795.675781 95.195312 Z M 775.222656 95.136719 " fill-opacity="1" fill-rule="nonzero"/><path fill="#58c7cc" d="M 697.28125 102.242188 L 697.28125 62.683594 L 690.3125 62.683594 L 690.3125 102.242188 Z M 697.28125 102.242188 " fill-opacity="1" fill-rule="nonzero"/><path fill="#58c7cc" d="M 747.441406 95.175781 L 731.109375 62.683594 L 714.78125 95.175781 L 711.214844 102.242188 L 719.015625 102.242188 L 722.582031 95.175781 L 731.109375 78.222656 L 739.636719 95.175781 L 743.203125 102.242188 L 751.007812 102.242188 Z M 747.441406 95.175781 " fill-opacity="1" fill-rule="nonzero"/><g fill="#171e3b" fill-opacity="1"><g transform="translate(795.468944, 73.74756)"><g><path d="M 2.46875 -10.296875 C 2.46875 -10.054688 2.394531 -9.847656 2.25 -9.671875 C 2.113281 -9.492188 1.953125 -9.40625 1.765625 -9.40625 C 1.566406 -9.40625 1.398438 -9.492188 1.265625 -9.671875 C 1.128906 -9.847656 1.0625 -10.054688 1.0625 -10.296875 C 1.0625 -10.546875 1.128906 -10.753906 1.265625 -10.921875 C 1.398438 -11.097656 1.566406 -11.1875 1.765625 -11.1875 C 1.953125 -11.1875 2.113281 -11.097656 2.25 -10.921875 C 2.394531 -10.753906 2.46875 -10.546875 2.46875 -10.296875 Z M 2.40625 -0.578125 L 3.453125 -0.375 L 3.453125 0 L 0.28125 0 L 0.28125 -0.375 L 1.328125 -0.578125 L 1.328125 -7.1875 L 0.453125 -7.390625 L 0.453125 -7.765625 L 2.40625 -7.765625 Z M 2.40625 -0.578125 "/></g></g></g><g fill="#171e3b" fill-opacity="1"><g transform="translate(800.993184, 73.74756)"><g><path d="M 2.171875 0.171875 C 1.753906 0.171875 1.441406 0.015625 1.234375 -0.296875 C 1.035156 -0.617188 0.9375 -1.0625 0.9375 -1.625 L 0.9375 -7.0625 L 0.125 -7.0625 L 0.125 -7.4375 L 0.9375 -7.765625 L 1.609375 -9.515625 L 2.015625 -9.515625 L 2.015625 -7.765625 L 3.421875 -7.765625 L 3.421875 -7.0625 L 2.015625 -7.0625 L 2.015625 -1.78125 C 2.015625 -1.414062 2.078125 -1.140625 2.203125 -0.953125 C 2.328125 -0.773438 2.492188 -0.6875 2.703125 -0.6875 C 2.960938 -0.6875 3.269531 -0.734375 3.625 -0.828125 L 3.625 -0.28125 C 3.476562 -0.15625 3.257812 -0.0507812 2.96875 0.03125 C 2.6875 0.125 2.421875 0.171875 2.171875 0.171875 Z M 2.171875 0.171875 "/></g></g></g></g></g></svg>