<svg xmlns="http://www.w3.org/2000/svg" xmlns:xlink="http://www.w3.org/1999/xlink" width="1080" zoomAndPan="magnify" viewBox="0 0 810 259.499997" height="346" preserveAspectRatio="xMidYMid meet" version="1.0"><defs><g/></defs><path fill="#181e3c" d="M 418.660156 121.207031 L 439.308594 121.207031 L 439.308594 116.144531 L 418.660156 116.144531 C 414.457031 116.144531 411.0625 119.585938 411.0625 123.796875 L 411.0625 136.835938 C 411.0625 141.046875 414.457031 144.488281 418.660156 144.488281 L 439.308594 144.488281 L 439.308594 139.425781 L 418.660156 139.425781 C 417.242188 139.425781 416.070312 138.25 416.070312 136.835938 L 416.070312 131.488281 L 434.257812 131.488281 L 434.257812 126.429688 L 416.070312 126.429688 L 416.070312 123.796875 C 416.070312 122.378906 417.242188 121.207031 418.660156 121.207031 Z M 418.660156 121.207031 " fill-opacity="1" fill-rule="nonzero"/><path fill="#181e3c" d="M 450.019531 144.609375 L 450.101562 144.527344 L 450.019531 144.527344 Z M 478.308594 144.527344 L 478.269531 144.527344 L 478.308594 144.609375 Z M 478.308594 116.183594 L 471.964844 116.183594 L 464.207031 126.265625 L 456.445312 116.183594 L 450.058594 116.183594 L 461.011719 130.394531 L 450.140625 144.527344 L 456.527344 144.527344 L 464.246094 134.527344 L 471.964844 144.527344 L 478.351562 144.527344 L 467.4375 130.394531 L 478.390625 116.183594 Z M 478.308594 116.183594 " fill-opacity="1" fill-rule="nonzero"/><path fill="#181e3c" d="M 512.257812 118.371094 C 510.882812 116.996094 508.984375 116.144531 506.882812 116.144531 L 489.058594 116.144531 L 489.058594 144.488281 L 494.113281 144.488281 L 494.113281 131.449219 L 507.652344 131.449219 L 507.652344 131.410156 C 507.730469 131.410156 507.8125 131.410156 507.894531 131.410156 C 508.660156 131.328125 509.386719 131.125 510.074219 130.800781 C 512.703125 129.585938 514.519531 126.914062 514.519531 123.835938 C 514.519531 121.730469 513.671875 119.828125 512.296875 118.453125 Z M 507.972656 126.226562 C 507.652344 126.386719 507.285156 126.46875 506.921875 126.46875 L 494.113281 126.46875 L 494.113281 121.246094 L 506.921875 121.246094 C 507.8125 121.246094 508.417969 121.652344 508.742188 121.972656 C 509.023438 122.257812 509.507812 122.90625 509.507812 123.835938 C 509.507812 124.847656 508.902344 125.78125 507.972656 126.183594 Z M 507.972656 126.226562 " fill-opacity="1" fill-rule="nonzero"/><path fill="#181e3c" d="M 537.558594 116.144531 C 529.757812 116.144531 523.414062 122.5 523.414062 130.316406 C 523.414062 138.128906 529.757812 144.488281 537.558594 144.488281 C 545.355469 144.488281 551.703125 138.128906 551.703125 130.316406 C 551.703125 122.5 545.355469 116.144531 537.558594 116.144531 Z M 537.558594 139.425781 C 532.546875 139.425781 528.464844 135.335938 528.464844 130.316406 C 528.464844 125.292969 532.546875 121.207031 537.558594 121.207031 C 542.570312 121.207031 546.648438 125.292969 546.648438 130.316406 C 546.648438 135.335938 542.570312 139.425781 537.558594 139.425781 Z M 537.558594 139.425781 " fill-opacity="1" fill-rule="nonzero"/><path fill="#181e3c" d="M 585.648438 116.144531 L 585.648438 134.203125 L 567.464844 120.152344 L 562.410156 116.265625 L 562.410156 144.527344 L 567.464844 144.527344 L 567.464844 126.589844 L 585.648438 140.640625 L 590.703125 144.527344 L 590.703125 116.183594 Z M 585.648438 116.144531 " fill-opacity="1" fill-rule="nonzero"/><path fill="#181e3c" d="M 610.058594 121.207031 L 630.710938 121.207031 L 630.710938 116.144531 L 610.058594 116.144531 C 605.855469 116.144531 602.460938 119.585938 602.460938 123.796875 L 602.460938 136.835938 C 602.460938 141.046875 605.855469 144.488281 610.058594 144.488281 L 630.710938 144.488281 L 630.710938 139.425781 L 610.058594 139.425781 C 608.644531 139.425781 607.472656 138.25 607.472656 136.835938 L 607.472656 131.488281 L 625.660156 131.488281 L 625.660156 126.429688 L 607.472656 126.429688 L 607.472656 123.796875 C 607.472656 122.378906 608.644531 121.207031 610.058594 121.207031 Z M 610.058594 121.207031 " fill-opacity="1" fill-rule="nonzero"/><path fill="#181e3c" d="M 665.671875 116.144531 L 665.671875 134.203125 L 647.484375 120.152344 L 642.433594 116.265625 L 642.433594 144.527344 L 647.484375 144.527344 L 647.484375 126.589844 L 665.671875 140.640625 L 670.722656 144.527344 L 670.722656 116.183594 Z M 665.671875 116.144531 " fill-opacity="1" fill-rule="nonzero"/><path fill="#181e3c" d="M 682.441406 116.183594 L 682.441406 121.246094 L 694.039062 121.246094 L 694.039062 144.527344 L 699.09375 144.527344 L 699.09375 121.246094 L 710.691406 121.246094 L 710.691406 116.183594 Z M 682.441406 116.183594 " fill-opacity="1" fill-rule="nonzero"/><path fill="#181e3c" d="M 784.003906 139.425781 C 782.226562 139.183594 780.808594 137.765625 780.566406 135.984375 L 780.566406 116.183594 L 775.515625 116.183594 L 775.515625 135.496094 C 775.515625 136.914062 775.839844 138.25 776.445312 139.464844 C 777.292969 141.246094 778.75 142.703125 780.527344 143.597656 C 781.738281 144.203125 783.074219 144.527344 784.488281 144.527344 L 798.835938 144.527344 L 798.835938 139.464844 Z M 784.003906 139.425781 " fill-opacity="1" fill-rule="nonzero"/><path fill="#58c7cc" d="M 727.484375 144.515625 L 727.484375 116.171875 L 722.433594 116.171875 L 722.433594 144.515625 Z M 727.484375 144.515625 " fill-opacity="1" fill-rule="nonzero"/><path fill="#58c7cc" d="M 763.855469 139.453125 L 752.015625 116.171875 L 740.175781 139.453125 L 737.585938 144.515625 L 743.246094 144.515625 L 745.832031 139.453125 L 752.015625 127.308594 L 758.199219 139.453125 L 760.785156 144.515625 L 766.441406 144.515625 Z M 763.855469 139.453125 " fill-opacity="1" fill-rule="nonzero"/><g fill="#171e3b" fill-opacity="1"><g transform="translate(798.684227, 124.100317)"><g><path d="M 1.796875 -7.375 C 1.796875 -7.195312 1.742188 -7.046875 1.640625 -6.921875 C 1.535156 -6.796875 1.414062 -6.734375 1.28125 -6.734375 C 1.132812 -6.734375 1.007812 -6.796875 0.90625 -6.921875 C 0.8125 -7.046875 0.765625 -7.195312 0.765625 -7.375 C 0.765625 -7.550781 0.8125 -7.703125 0.90625 -7.828125 C 1.007812 -7.953125 1.132812 -8.015625 1.28125 -8.015625 C 1.414062 -8.015625 1.535156 -7.953125 1.640625 -7.828125 C 1.742188 -7.703125 1.796875 -7.550781 1.796875 -7.375 Z M 1.75 -0.40625 L 2.5 -0.265625 L 2.5 0 L 0.203125 0 L 0.203125 -0.265625 L 0.953125 -0.40625 L 0.953125 -5.140625 L 0.328125 -5.296875 L 0.328125 -5.5625 L 1.75 -5.5625 Z M 1.75 -0.40625 "/></g></g></g><g fill="#171e3b" fill-opacity="1"><g transform="translate(802.695211, 124.100317)"><g><path d="M 1.578125 0.125 C 1.273438 0.125 1.046875 0.0078125 0.890625 -0.21875 C 0.742188 -0.445312 0.671875 -0.765625 0.671875 -1.171875 L 0.671875 -5.0625 L 0.09375 -5.0625 L 0.09375 -5.328125 L 0.6875 -5.5625 L 1.15625 -6.8125 L 1.453125 -6.8125 L 1.453125 -5.5625 L 2.46875 -5.5625 L 2.46875 -5.0625 L 1.453125 -5.0625 L 1.453125 -1.265625 C 1.453125 -1.015625 1.5 -0.820312 1.59375 -0.6875 C 1.6875 -0.5625 1.8125 -0.5 1.96875 -0.5 C 2.144531 -0.5 2.363281 -0.53125 2.625 -0.59375 L 2.625 -0.203125 C 2.519531 -0.109375 2.363281 -0.03125 2.15625 0.03125 C 1.945312 0.09375 1.753906 0.125 1.578125 0.125 Z M 1.578125 0.125 "/></g></g></g><path fill="#1d1e40" d="M 267.53125 4.625 L 229.601562 4.625 C 228.34375 4.625 227.109375 4.792969 225.894531 5.132812 C 224.683594 5.476562 223.542969 5.972656 222.46875 6.628906 C 221.394531 7.285156 220.429688 8.074219 219.570312 8.996094 C 218.714844 9.921875 217.996094 10.941406 217.421875 12.0625 L 96.605469 247.535156 C 96.492188 247.757812 96.390625 247.988281 96.304688 248.222656 C 96.222656 248.460938 96.152344 248.699219 96.097656 248.945312 C 96.042969 249.191406 96.003906 249.4375 95.980469 249.6875 C 95.957031 249.9375 95.953125 250.1875 95.960938 250.4375 C 95.96875 250.6875 95.996094 250.9375 96.035156 251.183594 C 96.078125 251.429688 96.132812 251.675781 96.207031 251.914062 C 96.277344 252.15625 96.363281 252.390625 96.46875 252.617188 C 96.570312 252.847656 96.683594 253.070312 96.816406 253.285156 C 96.945312 253.496094 97.089844 253.703125 97.246094 253.898438 C 97.402344 254.09375 97.570312 254.277344 97.75 254.453125 C 97.929688 254.628906 98.121094 254.789062 98.324219 254.9375 C 98.523438 255.089844 98.734375 255.226562 98.949219 255.347656 C 99.167969 255.472656 99.394531 255.578125 99.625 255.671875 C 99.859375 255.765625 100.097656 255.847656 100.339844 255.910156 C 100.582031 255.972656 100.824219 256.023438 101.074219 256.054688 C 101.324219 256.085938 101.570312 256.101562 101.820312 256.101562 L 159.214844 256.101562 C 160.515625 256.101562 161.792969 255.921875 163.042969 255.5625 C 164.292969 255.203125 165.472656 254.679688 166.574219 253.988281 C 167.679688 253.296875 168.667969 252.46875 169.539062 251.5 C 170.410156 250.53125 171.128906 249.460938 171.699219 248.289062 L 249.15625 89.40625 L 249.773438 89.40625 L 297.921875 188.558594 C 317.0625 228.011719 348.632812 253.242188 392.050781 255.527344 C 394.140625 255.632812 398.488281 256.601562 400.660156 253 C 402.59375 249.804688 400.433594 245.050781 400.433594 245.050781 L 281.867188 13.40625 C 281.195312 12.082031 280.351562 10.878906 279.34375 9.789062 C 278.335938 8.699219 277.199219 7.765625 275.933594 6.992188 C 274.671875 6.214844 273.324219 5.628906 271.898438 5.226562 C 270.46875 4.824219 269.011719 4.621094 267.53125 4.625 Z M 267.53125 4.625 " fill-opacity="1" fill-rule="nonzero"/><path fill="#48bdcd" d="M 4.515625 244.460938 L 124.625 9.1875 C 125.089844 8.28125 125.667969 7.449219 126.363281 6.703125 C 127.058594 5.953125 127.839844 5.3125 128.710938 4.777344 C 129.582031 4.246094 130.507812 3.839844 131.488281 3.5625 C 132.472656 3.285156 133.472656 3.148438 134.496094 3.144531 L 197.625 3.144531 C 197.839844 3.144531 198.082031 3.144531 198.1875 3.386719 C 198.246094 3.570312 198.21875 3.742188 198.109375 3.898438 C 198.109375 3.898438 198.109375 4.019531 198.015625 4.085938 L 197.878906 4.367188 L 197.707031 4.730469 L 197.476562 5.171875 L 197.222656 5.699219 C 197.117188 5.898438 197.023438 6.101562 196.914062 6.316406 L 196.578125 7 L 196.203125 7.765625 L 195.789062 8.597656 C 195.640625 8.90625 195.492188 9.214844 195.332031 9.511719 L 194.847656 10.503906 L 194.328125 11.566406 C 194.140625 11.941406 193.949219 12.316406 193.777344 12.695312 L 193.171875 13.886719 C 192.972656 14.316406 192.757812 14.734375 192.554688 15.152344 C 192.355469 15.566406 192.113281 16.050781 191.898438 16.492188 C 191.683594 16.9375 191.441406 17.421875 191.203125 17.835938 C 190.960938 18.253906 190.730469 18.804688 190.492188 19.300781 C 190.25 19.796875 189.980469 20.308594 189.738281 20.816406 C 189.5 21.328125 189.214844 21.863281 188.960938 22.402344 L 188.144531 24.039062 L 187.378906 25.800781 C 187.082031 26.375 186.789062 26.96875 186.507812 27.542969 C 186.226562 28.121094 185.917969 28.753906 185.609375 29.359375 C 185.300781 29.960938 185.003906 30.605469 184.695312 31.222656 L 183.746094 33.144531 L 182.777344 35.105469 C 182.441406 35.789062 182.109375 36.449219 181.785156 37.132812 C 181.464844 37.816406 181.101562 38.476562 180.765625 39.1875 L 179.71875 41.308594 C 179.359375 42.019531 179.007812 42.746094 178.660156 43.457031 L 177.574219 45.660156 L 176.460938 47.902344 L 175.308594 50.144531 C 174.933594 50.921875 174.542969 51.6875 174.167969 52.46875 L 173 54.832031 C 172.597656 55.621094 172.210938 56.429688 171.820312 57.222656 L 170.613281 59.664062 C 170.210938 60.484375 169.808594 61.304688 169.394531 62.121094 C 168.976562 62.941406 168.574219 63.785156 168.160156 64.621094 L 166.910156 67.15625 C 166.496094 68.003906 166.082031 68.863281 165.652344 69.722656 L 164.308594 72.300781 L 162.96875 74.917969 C 162.527344 75.804688 162.097656 76.679688 161.628906 77.605469 C 161.15625 78.53125 160.742188 79.375 160.285156 80.289062 L 158.945312 82.976562 C 158.488281 83.875 158.046875 84.789062 157.605469 85.660156 C 157.160156 86.535156 156.707031 87.472656 156.261719 88.347656 C 155.820312 89.21875 155.351562 90.171875 154.921875 91.101562 L 153.582031 93.785156 C 153.125 94.710938 152.667969 95.652344 152.238281 96.566406 C 151.808594 97.476562 151.3125 98.429688 150.898438 99.371094 C 150.480469 100.3125 149.972656 101.238281 149.554688 102.175781 L 148.214844 104.984375 C 147.746094 105.9375 147.289062 106.878906 146.875 107.816406 C 146.457031 108.757812 145.933594 109.710938 145.53125 110.652344 L 144.125 113.496094 L 142.785156 116.34375 L 141.375 119.203125 L 140.035156 122.066406 L 138.625 124.925781 L 137.21875 127.773438 L 135.515625 130.710938 L 134.105469 133.574219 L 132.695312 136.417969 C 132.242188 137.371094 131.773438 138.324219 131.355469 139.265625 L 129.949219 142.113281 C 129.492188 143.050781 129.023438 143.992188 128.605469 144.933594 C 128.191406 145.871094 127.679688 146.824219 127.265625 147.765625 C 126.847656 148.707031 126.339844 149.632812 125.925781 150.574219 L 124.582031 153.367188 L 123 156.226562 L 121.660156 158.910156 C 121.203125 159.824219 120.746094 160.738281 120.316406 161.597656 C 119.886719 162.457031 119.40625 163.410156 118.976562 164.28125 C 118.546875 165.15625 118.078125 166.09375 117.636719 166.96875 L 116.292969 169.652344 C 115.851562 170.539062 115.410156 171.4375 114.953125 172.339844 L 113.613281 175.023438 L 112.269531 177.710938 L 110.929688 180.300781 C 110.511719 181.160156 110.085938 182.019531 109.667969 182.867188 L 108.40625 185.40625 C 107.992188 186.25 107.589844 187.082031 107.171875 187.914062 C 106.757812 188.75 106.355469 189.566406 105.953125 190.398438 L 104.746094 192.84375 L 103.550781 195.246094 L 102.386719 197.625 L 101.230469 199.960938 L 100.105469 202.242188 C 99.730469 202.996094 99.355469 203.746094 98.992188 204.5 L 97.890625 206.714844 C 97.542969 207.441406 97.179688 208.164062 96.820312 208.890625 L 95.773438 211.011719 C 95.4375 211.710938 95.089844 212.355469 94.753906 213.09375 L 93.746094 215.121094 L 92.769531 217.109375 L 91.816406 219.042969 L 90.890625 220.921875 C 90.582031 221.527344 90.289062 222.144531 89.992188 222.746094 L 89.105469 224.519531 L 88.261719 226.238281 C 87.996094 226.789062 87.710938 227.339844 87.445312 227.902344 C 87.175781 228.46875 86.921875 228.964844 86.652344 229.503906 L 85.886719 231.046875 L 85.164062 232.523438 L 84.464844 233.933594 L 83.796875 235.277344 L 83.164062 236.617188 L 82.5625 237.839844 L 82 238.980469 C 81.8125 239.34375 81.636719 239.707031 81.460938 240.070312 C 81.289062 240.433594 81.128906 240.742188 80.964844 241.078125 C 80.804688 241.414062 80.65625 241.707031 80.496094 242.015625 C 80.335938 242.324219 80.214844 242.59375 80.066406 242.875 C 79.921875 243.160156 79.8125 243.398438 79.679688 243.667969 L 79.328125 244.378906 L 79.019531 245.011719 C 78.925781 245.199219 78.832031 245.375 78.753906 245.5625 L 78.511719 246.03125 L 78.324219 246.421875 L 78.175781 246.730469 L 78.070312 246.945312 L 77.976562 247.121094 C 77.421875 248.25 76.722656 249.28125 75.882812 250.214844 C 75.039062 251.148438 74.082031 251.949219 73.015625 252.613281 C 71.949219 253.277344 70.8125 253.78125 69.601562 254.125 C 68.394531 254.472656 67.160156 254.640625 65.902344 254.640625 L 10.765625 254.640625 C 10.46875 254.640625 10.171875 254.621094 9.878906 254.582031 C 9.582031 254.542969 9.289062 254.484375 9.003906 254.410156 C 8.714844 254.332031 8.433594 254.238281 8.15625 254.128906 C 7.878906 254.015625 7.613281 253.886719 7.351562 253.742188 C 7.09375 253.597656 6.84375 253.433594 6.605469 253.257812 C 6.367188 253.078125 6.136719 252.886719 5.921875 252.679688 C 5.710938 252.476562 5.507812 252.253906 5.320312 252.023438 C 5.132812 251.792969 4.964844 251.546875 4.808594 251.292969 C 4.652344 251.039062 4.511719 250.777344 4.390625 250.507812 C 4.265625 250.234375 4.164062 249.957031 4.074219 249.671875 C 3.988281 249.386719 3.917969 249.097656 3.871094 248.804688 C 3.820312 248.507812 3.789062 248.214844 3.773438 247.914062 C 3.761719 247.617188 3.769531 247.320312 3.792969 247.023438 C 3.820312 246.726562 3.863281 246.433594 3.925781 246.140625 C 3.988281 245.847656 4.066406 245.5625 4.167969 245.28125 C 4.265625 245 4.382812 244.726562 4.515625 244.460938 Z M 4.515625 244.460938 " fill-opacity="1" fill-rule="nonzero"/></svg>