<svg xmlns="http://www.w3.org/2000/svg" id="svg311" version="1.1" viewBox="76.65525319103523 36.472616964000004 301.19342582710783 192.88068" style="max-height: 500px" width="301.19342582710783" height="192.88068">
  
  <defs id="defs277">
    <style id="style275">.cls-1{fill:#1d1e40;}.cls-2{fill:#48bdcd;}.cls-3{fill:#1d1f40;}.cls-4{fill:#5bc2d9;}</style>
  </defs>
  <g id="g829">
    <path id="path279" d="m 275.44712,39.915932 h -28.28 a 10.21,10.21 0 0 0 -9.08,5.54 l -90.08,175.359998 a 4.38,4.38 0 0 0 3.89,6.38 h 42.79 a 10.36,10.36 0 0 0 9.31,-5.82 l 57.75,-118.32 h 0.46 l 35.9,73.84 c 14.27,29.38 37.81,48.17 70.18,49.87 1.56,0.08 4.8,0.8 6.42,-1.88 1.44,-2.38 -0.17,-5.92 -0.17,-5.92 l -88.4,-172.509998 a 12,12 0 0 0 -10.69,-6.54 z" class="cls-1"/>
    <path id="path281" d="M 79.347119,218.52593 168.89712,43.315932 a 8.28,8.28 0 0 1 7.36,-4.5 h 47.07 c 0.16,0 0.34,0 0.42,0.18 a 0.43,0.43 0 0 1 -0.06,0.38 c 0,0 0,0.09 -0.07,0.14 l -0.1,0.21 -0.13,0.27 -0.17,0.33 -0.19,0.39 c -0.08,0.15 -0.15,0.3 -0.23,0.46 l -0.25,0.51 -0.28,0.57 -0.31,0.62 c -0.11,0.23 -0.22,0.46 -0.34,0.68 l -0.36,0.74 -0.39,0.79 c -0.14,0.28 -0.28,0.56 -0.41,0.84 l -0.45,0.89 c -0.15,0.32 -0.31,0.63 -0.46,0.94 -0.15,0.31 -0.33,0.67 -0.49,1 -0.16,0.33 -0.34,0.69 -0.52,1 -0.18,0.31 -0.35,0.72 -0.53,1.09 -0.18,0.37 -0.38,0.75 -0.56,1.13 -0.18,0.38 -0.39,0.78 -0.58,1.18 l -0.61,1.22 -0.57,1.31 c -0.22,0.43 -0.44,0.87 -0.65,1.3 -0.21,0.43 -0.44,0.9 -0.67,1.35 -0.23,0.45 -0.45,0.93 -0.68,1.39 l -0.71,1.43 -0.72,1.46 c -0.25,0.51 -0.5,1 -0.74,1.51 -0.24,0.51 -0.51,1 -0.76,1.53 l -0.78,1.58 c -0.27,0.53 -0.53,1.07 -0.79,1.6 l -0.81,1.64 -0.83,1.67 -0.86,1.67 c -0.28,0.58 -0.57,1.15 -0.85,1.73 l -0.87,1.76 c -0.3,0.59 -0.59,1.19 -0.88,1.78 l -0.9,1.82 c -0.3,0.61 -0.6,1.22 -0.91,1.83 -0.31,0.61 -0.61,1.24 -0.92,1.86 l -0.93,1.89 c -0.31,0.63 -0.62,1.27 -0.94,1.91 l -1,1.92 -1,1.95 c -0.33,0.66 -0.65,1.31 -1,2 -0.35,0.69 -0.66,1.32 -1,2 l -1,2 c -0.34,0.67 -0.67,1.35 -1,1.999998 -0.33,0.65 -0.67,1.35 -1,2 -0.33,0.65 -0.68,1.36 -1,2.05 l -1,2 c -0.34,0.69 -0.68,1.39 -1,2.07 -0.32,0.68 -0.69,1.39 -1,2.09 -0.31,0.7 -0.69,1.39 -1,2.09 l -1,2.09 c -0.35,0.71 -0.69,1.41 -1,2.11 -0.31,0.7 -0.7,1.41 -1,2.11 l -1.05,2.12 -1,2.12 -1.05,2.13 -1,2.13 -1.05,2.13 -1.05,2.12 -1.27,2.19 -1.05,2.13 -1.05,2.12 c -0.34,0.71 -0.69,1.42 -1,2.12 l -1.05,2.12 c -0.34,0.7 -0.69,1.4 -1,2.1 -0.31,0.7 -0.69,1.41 -1,2.11 -0.31,0.7 -0.69,1.39 -1,2.09 l -1,2.08 -1.18,2.13 -1,2 c -0.34,0.68 -0.68,1.36 -1,2 -0.32,0.64 -0.68,1.35 -1,2 -0.32,0.65 -0.67,1.35 -1,2 l -1,2 c -0.33,0.66 -0.66,1.33 -1,2 l -1,2 -1,2 -1,1.93 c -0.31,0.64 -0.63,1.28 -0.94,1.91 l -0.94,1.89 c -0.31,0.63 -0.61,1.25 -0.92,1.87 -0.31,0.62 -0.61,1.23 -0.91,1.85 l -0.9,1.82 -0.89,1.79 -0.87,1.77 -0.86,1.74 -0.84,1.7 c -0.28,0.56 -0.56,1.12 -0.83,1.68 l -0.82,1.65 c -0.26,0.54 -0.53,1.08 -0.8,1.62 l -0.78,1.58 c -0.25,0.52 -0.51,1 -0.76,1.55 l -0.75,1.51 -0.73,1.48 -0.71,1.44 -0.69,1.4 c -0.23,0.45 -0.45,0.91 -0.67,1.36 l -0.66,1.32 -0.63,1.28 c -0.2,0.41 -0.41,0.82 -0.61,1.24 -0.2,0.42 -0.39,0.79 -0.59,1.19 l -0.57,1.15 -0.54,1.1 -0.52,1.05 -0.5,1 -0.47,1 -0.45,0.91 -0.42,0.85 c -0.14,0.27 -0.27,0.54 -0.4,0.81 -0.13,0.27 -0.25,0.5 -0.37,0.75 -0.12,0.25 -0.23,0.47 -0.35,0.7 -0.12,0.23 -0.21,0.43 -0.32,0.64 -0.11,0.21 -0.19,0.39 -0.29,0.59 l -0.26,0.53 -0.23,0.47 c -0.07,0.14 -0.14,0.27 -0.2,0.41 l -0.18,0.35 -0.14,0.29 -0.11,0.23 -0.08,0.16 -0.07,0.13 a 10,10 0 0 1 -9,5.6 H 84.007119 a 5.23,5.23 0 0 1 -4.66,-7.58 z" class="cls-2"/>
  </g>
</svg>