<svg xmlns="http://www.w3.org/2000/svg" viewBox="86.74015748031496 497.5103498951782 644.1259842519686 49.75103498951782" id="svg198" version="1.1" style="max-height: 500px" width="644.1259842519686" height="49.75103498951782">
  <defs id="defs202">
    <clipPath id="clipPath365" clipPathUnits="userSpaceOnUse">
      <g transform="translate(-155.9624,-238.9432)" id="g369">
        <path id="path367" d="M 0,574.143 H 612 V 0 H 0 Z"/>
      </g>
    </clipPath>
    <clipPath id="clipPath371" clipPathUnits="userSpaceOnUse">
      <g transform="translate(-352.0566,-417.5484)" id="g375">
        <path id="path373" d="M 0,574.143 H 612 V 0 H 0 Z"/>
      </g>
    </clipPath>
  </defs>
  <g transform="matrix(1.3333333,0,0,-1.3333333,0,765.524)" id="g206">
    <g clip-path="url(#clipPath371)" transform="translate(352.0566,417.5484)" id="g216">
      <path id="path218" style="fill:#171e3b;fill-opacity:1;fill-rule:nonzero;stroke:none" d="m 0,0 h -28.281 c -3.826,0 -7.33,-2.139 -9.077,-5.542 l -90.08,-175.397 c -1.496,-2.912 0.619,-6.376 3.893,-6.376 h 42.781 c 3.963,0 7.579,2.259 9.317,5.82 l 57.748,118.362 h 0.462 l 35.895,-73.849 c 14.276,-29.373 37.815,-48.168 70.182,-49.867 1.562,-0.082 4.805,-0.802 6.425,1.881 1.437,2.38 -0.171,5.92 -0.171,5.92 L 10.689,-6.541 C 8.637,-2.526 4.509,0 0,0"/>
    </g>
    <g clip-path="url(#clipPath365)" transform="translate(155.9624,238.9432)" id="g220">
      <path id="path222" style="fill:#58c7cc;fill-opacity:1;fill-rule:nonzero;stroke:none" d="m 0,0 89.549,175.205 c 1.413,2.763 4.254,4.502 7.358,4.502 h 0.105 0.399 0.678 0.936 1.172 1.386 1.58 1.753 1.904 2.034 2.142 2.231 2.296 2.342 2.365 2.369 2.349 2.31 2.249 2.166 2.064 1.938 1.793 1.625 1.437 1.228 0.997 0.744 0.472 c 0.164,0 0.341,0.013 0.423,-0.175 0.059,-0.135 0.005,-0.261 -0.055,-0.38 -0.024,-0.048 -0.048,-0.096 -0.071,-0.144 -0.034,-0.069 -0.069,-0.139 -0.103,-0.208 -0.044,-0.09 -0.089,-0.18 -0.133,-0.27 -0.055,-0.111 -0.11,-0.222 -0.165,-0.332 -0.064,-0.132 -0.129,-0.262 -0.194,-0.393 -0.074,-0.151 -0.149,-0.302 -0.223,-0.453 -0.085,-0.171 -0.169,-0.341 -0.253,-0.512 -0.094,-0.189 -0.188,-0.379 -0.281,-0.569 -0.103,-0.208 -0.206,-0.417 -0.309,-0.625 -0.112,-0.227 -0.224,-0.454 -0.337,-0.681 -0.121,-0.245 -0.242,-0.491 -0.363,-0.736 -0.13,-0.263 -0.26,-0.526 -0.39,-0.789 -0.138,-0.28 -0.277,-0.561 -0.416,-0.841 -0.147,-0.298 -0.294,-0.595 -0.441,-0.893 -0.155,-0.314 -0.31,-0.629 -0.465,-0.943 -0.164,-0.331 -0.327,-0.661 -0.491,-0.992 -0.171,-0.347 -0.342,-0.694 -0.514,-1.041 -0.179,-0.362 -0.358,-0.725 -0.537,-1.087 -0.187,-0.378 -0.373,-0.757 -0.56,-1.134 -0.194,-0.393 -0.388,-0.786 -0.583,-1.179 -0.201,-0.408 -0.402,-0.816 -0.604,-1.223 -0.208,-0.422 -0.417,-0.844 -0.625,-1.266 -0.216,-0.436 -0.431,-0.872 -0.646,-1.308 -0.222,-0.45 -0.444,-0.899 -0.667,-1.349 -0.228,-0.463 -0.457,-0.926 -0.686,-1.389 -0.235,-0.475 -0.47,-0.951 -0.705,-1.427 -0.241,-0.488 -0.483,-0.977 -0.724,-1.465 -0.247,-0.501 -0.494,-1.001 -0.742,-1.502 -0.253,-0.513 -0.506,-1.025 -0.759,-1.538 -0.259,-0.524 -0.518,-1.048 -0.777,-1.572 -0.265,-0.535 -0.529,-1.071 -0.793,-1.606 -0.27,-0.546 -0.54,-1.092 -0.81,-1.638 l -0.825,-1.67 c -0.28,-0.567 -0.56,-1.134 -0.84,-1.701 -0.285,-0.576 -0.57,-1.153 -0.854,-1.729 -0.29,-0.586 -0.579,-1.172 -0.869,-1.759 -0.294,-0.595 -0.588,-1.19 -0.882,-1.785 -0.298,-0.604 -0.597,-1.208 -0.895,-1.812 -0.303,-0.612 -0.605,-1.224 -0.908,-1.837 -0.306,-0.62 -0.613,-1.24 -0.919,-1.861 -0.31,-0.628 -0.621,-1.256 -0.931,-1.884 -0.314,-0.636 -0.628,-1.271 -0.942,-1.907 -0.317,-0.642 -0.635,-1.285 -0.952,-1.927 -0.321,-0.649 -0.642,-1.298 -0.962,-1.948 -0.324,-0.655 -0.648,-1.311 -0.972,-1.966 -0.326,-0.661 -0.653,-1.323 -0.98,-1.984 -0.329,-0.667 -0.659,-1.334 -0.989,-2.002 -0.332,-0.672 -0.664,-1.344 -0.996,-2.017 -0.335,-0.677 -0.669,-1.354 -1.004,-2.031 -0.337,-0.682 -0.674,-1.364 -1.011,-2.046 -0.338,-0.686 -0.677,-1.372 -1.016,-2.058 -0.341,-0.69 -0.682,-1.38 -1.023,-2.07 -0.342,-0.694 -0.685,-1.387 -1.028,-2.081 -0.344,-0.697 -0.688,-1.393 -1.032,-2.09 -0.346,-0.7 -0.692,-1.399 -1.037,-2.099 -0.347,-0.702 -0.694,-1.404 -1.041,-2.106 -0.347,-0.704 -0.695,-1.408 -1.043,-2.112 -0.349,-0.706 -0.698,-1.412 -1.046,-2.118 -0.35,-0.708 -0.699,-1.415 -1.049,-2.122 -0.35,-0.709 -0.7,-1.417 -1.05,-2.126 -0.35,-0.709 -0.701,-1.419 -1.051,-2.128 -0.351,-0.709 -0.701,-1.419 -1.052,-2.129 C 99.422,88.233 99.072,87.523 98.721,86.813 98.371,86.104 98.02,85.394 97.67,84.685 97.32,83.976 96.969,83.267 96.619,82.558 96.27,81.851 95.92,81.143 95.57,80.435 95.221,79.729 94.872,79.022 94.523,78.316 94.175,77.611 93.827,76.906 93.479,76.201 93.132,75.499 92.784,74.796 92.437,74.093 92.091,73.393 91.745,72.692 91.399,71.992 91.055,71.295 90.71,70.597 90.365,69.899 90.022,69.205 89.679,68.51 89.336,67.816 88.995,67.125 88.653,66.434 88.312,65.742 87.972,65.055 87.633,64.368 87.293,63.68 86.955,62.997 86.618,62.314 86.281,61.631 85.945,60.952 85.61,60.273 85.275,59.595 84.942,58.921 84.609,58.247 84.276,57.573 83.945,56.904 83.615,56.235 83.285,55.567 82.957,54.904 82.629,54.24 82.302,53.577 81.977,52.92 81.652,52.262 81.327,51.605 81.006,50.954 80.684,50.303 80.362,49.652 80.044,49.007 79.726,48.363 79.407,47.718 79.092,47.08 78.777,46.443 78.462,45.805 78.151,45.174 77.839,44.544 77.528,43.914 77.22,43.291 76.912,42.668 76.605,42.045 76.301,41.43 75.997,40.816 75.693,40.201 c -0.299,-0.607 -0.599,-1.213 -0.898,-1.82 -0.296,-0.598 -0.591,-1.196 -0.886,-1.794 -0.291,-0.588 -0.582,-1.177 -0.873,-1.766 -0.287,-0.58 -0.573,-1.159 -0.859,-1.739 -0.282,-0.57 -0.563,-1.139 -0.845,-1.709 -0.276,-0.56 -0.553,-1.12 -0.829,-1.68 -0.272,-0.549 -0.543,-1.098 -0.815,-1.648 -0.266,-0.538 -0.532,-1.077 -0.798,-1.616 -0.261,-0.527 -0.521,-1.055 -0.782,-1.583 -0.255,-0.516 -0.51,-1.032 -0.765,-1.548 -0.249,-0.504 -0.498,-1.009 -0.747,-1.513 -0.244,-0.492 -0.487,-0.984 -0.73,-1.477 -0.237,-0.479 -0.474,-0.959 -0.711,-1.439 -0.23,-0.467 -0.461,-0.934 -0.692,-1.4 -0.224,-0.454 -0.448,-0.908 -0.672,-1.362 -0.218,-0.44 -0.435,-0.88 -0.653,-1.32 -0.21,-0.427 -0.421,-0.853 -0.632,-1.279 -0.203,-0.412 -0.407,-0.824 -0.61,-1.236 C 61.699,11.874 61.503,11.477 61.307,11.079 61.118,10.696 60.929,10.314 60.74,9.931 60.558,9.564 60.377,9.197 60.195,8.829 60.021,8.478 59.848,8.126 59.674,7.774 59.508,7.438 59.342,7.103 59.176,6.767 59.019,6.447 58.861,6.128 58.703,5.809 58.553,5.506 58.404,5.203 58.254,4.9 58.113,4.615 57.972,4.329 57.831,4.043 57.698,3.774 57.565,3.506 57.433,3.238 57.309,2.987 57.185,2.736 57.061,2.486 56.946,2.253 56.831,2.02 56.716,1.788 56.611,1.573 56.505,1.359 56.399,1.145 56.302,0.949 56.206,0.754 56.109,0.558 56.022,0.382 55.935,0.206 55.848,0.029 55.77,-0.128 55.693,-0.285 55.615,-0.442 55.547,-0.579 55.48,-0.716 55.412,-0.853 55.354,-0.97 55.296,-1.087 55.238,-1.204 55.191,-1.301 55.143,-1.397 55.095,-1.494 55.058,-1.569 55.021,-1.645 54.983,-1.721 54.956,-1.775 54.93,-1.83 54.903,-1.884 54.886,-1.917 54.87,-1.95 54.837,-2.016 53.146,-5.44 49.657,-7.608 45.838,-7.608 H 4.655 C 0.749,-7.608 -1.778,-3.479 0,0"/>
    </g>
    <path style="font-size:48.3px;font-family:Azonix;-inkscape-font-specification:AzonixRegular;fill:#181e3c" id="path1309" d="M 81.378699,192.1041 H 106.06 v 6.0375 H 81.378699 c -5.0232,0 -9.0804,-4.1055 -9.0804,-9.1287 v -15.5526 c 0,-5.0232 4.0572,-9.1287 9.0804,-9.1287 H 106.06 v 6.0375 H 81.378699 c -1.6905,0 -3.0912,1.4007 -3.0912,3.0912 v 6.3756 H 100.0225 v 6.0375 H 78.287499 v 3.1395 c 0,1.6905 1.4007,3.0912 3.0912,3.0912 z"/>
    <path style="font-size:48.3px;font-family:Azonix;-inkscape-font-specification:AzonixRegular;fill:#181e3c" id="path1311" d="m 118.8595,164.1867 0.0966,0.0966 h -0.0966 z m 33.81,0.0966 h -0.0483 l 0.0483,-0.0966 z m 0,33.81 h -7.5831 l -9.2736,-12.0267 -9.2736,12.0267 h -7.6314 L 131.9971,181.14 119.0044,164.2833 h 7.6314 l 9.2253,11.9301 9.2253,-11.9301 h 7.6314 l -13.041,16.8567 13.0893,16.9533 z"/>
    <path style="font-size:48.3px;font-family:Azonix;-inkscape-font-specification:AzonixRegular;fill:#181e3c" id="path1313" d="m 193.2415,195.4851 c -1.6422,1.6422 -3.9123,2.6565 -6.4239,2.6565 h -21.3003 v -33.81 h 6.0375 v 15.5526 h 16.1805 v 0.0483 c 0.0966,0 0.1932,0 0.2898,0 0.9177,0.0966 1.7871,0.3381 2.6082,0.7245 3.1395,1.449 5.313,4.6368 5.313,8.3076 0,2.5116 -1.0143,4.7817 -2.6565,6.4239 z m -5.1198,-9.3702 c -0.3864,-0.1932 -0.8211,-0.2898 -1.2558,-0.2898 h -15.3111 v 6.2307 h 15.3111 c 1.0626,0 1.7871,-0.483 2.1735,-0.8694 0.3381,-0.3381 0.9177,-1.1109 0.9177,-2.2218 0,-1.2075 -0.7245,-2.3184 -1.8354,-2.8014 z"/>
    <path style="font-size:48.3px;font-family:Azonix;-inkscape-font-specification:AzonixRegular;fill:#181e3c" id="path1315" d="m 223.47731,198.1416 c -9.3219,0 -16.905,-7.5831 -16.905,-16.905 0,-9.3219 7.5831,-16.905 16.905,-16.905 9.3219,0 16.905,7.5831 16.905,16.905 0,9.3219 -7.5831,16.905 -16.905,16.905 z m 0,-27.7725 c -5.9892,0 -10.8675,4.8783 -10.8675,10.8675 0,5.9892 4.8783,10.8675 10.8675,10.8675 5.9892,0 10.8675,-4.8783 10.8675,-10.8675 0,-5.9892 -4.8783,-10.8675 -10.8675,-10.8675 z"/>
    <path style="font-size:48.3px;font-family:Azonix;-inkscape-font-specification:AzonixRegular;fill:#181e3c" id="path1317" d="m 280.9543,198.1416 v -21.5418 l -21.735,16.7601 -6.0375,4.6368 v -33.7134 h 6.0375 v 21.3969 l 21.735,-16.7601 6.0375,-4.6368 v 33.81 z"/>
    <path style="font-size:48.3px;font-family:Azonix;-inkscape-font-specification:AzonixRegular;fill:#181e3c" id="path1319" d="m 310.1275,192.1041 h 24.6813 v 6.0375 h -24.6813 c -5.0232,0 -9.0804,-4.1055 -9.0804,-9.1287 v -15.5526 c 0,-5.0232 4.0572,-9.1287 9.0804,-9.1287 h 24.6813 v 6.0375 h -24.6813 c -1.6905,0 -3.0912,1.4007 -3.0912,3.0912 v 6.3756 h 21.735 v 6.0375 h -21.735 v 3.1395 c 0,1.6905 1.4007,3.0912 3.0912,3.0912 z"/>
    <path style="font-size:48.3px;font-family:Azonix;-inkscape-font-specification:AzonixRegular;fill:#181e3c" id="path1321" d="m 376.58829,198.1416 v -21.5418 l -21.735,16.7601 -6.0375,4.6368 v -33.7134 h 6.0375 v 21.3969 l 21.735,-16.7601 6.0375,-4.6368 v 33.81 z"/>
    <path style="font-size:48.3px;font-family:Azonix;-inkscape-font-specification:AzonixRegular;fill:#181e3c" id="path1323" d="m 396.6328,198.0933 v -6.0375 h 13.8621 v -27.7725 h 6.0375 v 27.7725 h 13.8621 v 6.0375 z"/>
    <path style="font-size:48.3px;font-family:Azonix;-inkscape-font-specification:AzonixRegular;fill:#181e3c" id="path1329" d="m 518.0107,170.3691 c -2.1252,0.2898 -3.8157,1.9803 -4.1055,4.1055 v 23.6187 h -6.0375 v -23.0391 c 0,-1.6905 0.3864,-3.2844 1.1109,-4.7334 1.0143,-2.1252 2.7531,-3.864 4.8783,-4.9266 1.449,-0.7245 3.0429,-1.1109 4.7334,-1.1109 h 17.1465 v 6.0375 z"/>
    <path style="font-size:48.3px;font-family:Azonix;-inkscape-font-specification:AzonixRegular;fill:#58c7cc;fill-opacity:1" id="path1325-5" d="m 450.46338,164.29729 v 33.80999 h -6.0375 v -33.80999 z"/>
    <path style="font-size:48.3px;font-family:Azonix;-inkscape-font-specification:AzonixRegular;fill:#58c7cc;fill-opacity:1" id="path1327-3" d="m 493.93337,170.33479 -14.1519,27.77249 -14.1519,-27.77249 -3.0912,-6.0375 h 6.762 l 3.0912,6.0375 7.3899,14.49 7.3899,-14.49 3.0912,-6.0375 h 6.762 z"/>
    <text id="text234" style="font-variant:normal;font-weight:normal;font-stretch:normal;font-size:14.4552px;font-family:Azonix;-inkscape-font-specification:AzonixRegular;writing-mode:lr-tb;fill:#171e3b;fill-opacity:1;fill-rule:nonzero;stroke:none" transform="matrix(0.80057696,0,0,-1,535.5566,188.6504)" xml:space="preserve"><tspan id="tspan232" y="0" x="0 5.998908">it</tspan></text>
  </g>
</svg>